{"asset": {"version": "2.0", "generator": "CS460 Magic Fingers"}, "accessors": [{"bufferView": 0, "byteOffset": 0, "componentType": 5126, "count": 1335.0, "type": "VEC3", "max": [1654.93, 1319.95, 282.13], "min": [139.061, 32.0943, -17.7412]}, {"bufferView": 1, "byteOffset": 0, "componentType": 5123, "count": 7356, "type": "SCALAR", "max": [1334], "min": [0]}], "bufferViews": [{"buffer": 0, "byteOffset": 0, "byteLength": 16020, "target": 34962}, {"buffer": 1, "byteOffset": 0, "byteLength": 14712, "target": 34963}], "buffers": [{"uri": "data:application/octet-stream;base64,", "byteLength": 16020}, {"uri": "data:application/octet-stream;base64,", "byteLength": 14712}], "meshes": [{"primitives": [{"mode": 4, "attributes": {"POSITION": 0}, "indices": 1}]}], "nodes": [{"mesh": 0}], "scenes": [{"nodes": [0]}], "scene": 0}
