{"scene": 0, "meshes": [{"primitives": [{"indices": 1, "attributes": {"POSITION": 0}, "mode": 4}]}], "asset": {"version": "2.0", "generator": "CS460 Magic Fingers"}, "nodes": [{"mesh": 0}], "bufferViews": [{"buffer": 0, "byteLength": 708032, "byteOffset": 0, "target": 34962}, {"buffer": 1, "byteLength": 227916, "byteOffset": 0, "target": 34963}], "scenes": [{"nodes": [0]}], "buffers": [{"byteLength": 708032, "uri": "data:application/octet-stream;base64,"}, {"byteLength": 227916, "uri": "data:application/octet-stream;base64,"}], "accessors": [{"count": 59002, "min": [-75.601845, -19.713346, -0.102457], "max": [75.822151, 78.833191, 32.151825], "bufferView": 0, "componentType": 5126, "byteOffset": 0, "type": "VEC3"}, {"count": 113958, "min": [0], "max": [22125], "bufferView": 1, "componentType": 5123, "byteOffset": 0, "type": "SCALAR"}]}