{"asset": {"version": "2.0", "generator": "CS460 Magic Fingers"}, "accessors": [{"bufferView": 0, "byteOffset": 0, "componentType": 5126, "count": 2521.0, "type": "VEC3", "max": [4.64855, 5.54417, 3.34742], "min": [-4.64855, -6.03088, -3.31909]}, {"bufferView": 1, "byteOffset": 0, "componentType": 5123, "count": 15090, "type": "SCALAR", "max": [2520], "min": [0]}], "bufferViews": [{"buffer": 0, "byteOffset": 0, "byteLength": 30252, "target": 34962}, {"buffer": 1, "byteOffset": 0, "byteLength": 30180, "target": 34963}], "buffers": [{"uri": "data:application/octet-stream;base64,", "byteLength": 30252}, {"uri": "data:application/octet-stream;base64,", "byteLength": 30180}], "meshes": [{"primitives": [{"mode": 4, "attributes": {"POSITION": 0}, "indices": 1}]}], "nodes": [{"mesh": 0}], "scenes": [{"nodes": [0]}], "scene": 0}