{"asset": {"version": "2.0", "generator": "CS460 Magic Fingers"}, "accessors": [{"bufferView": 0, "byteOffset": 0, "componentType": 5126, "count": 1499.0, "type": "VEC3", "max": [182.563, 143.224, -84.6875], "min": [-120.0, -373.09, -323.378]}, {"bufferView": 1, "byteOffset": 0, "componentType": 5123, "count": 10296, "type": "SCALAR", "max": [1498], "min": [0]}], "bufferViews": [{"buffer": 0, "byteOffset": 0, "byteLength": 17988, "target": 34962}, {"buffer": 1, "byteOffset": 0, "byteLength": 20592, "target": 34963}], "buffers": [{"uri": "data:application/octet-stream;base64,", "byteLength": 17988}, {"uri": "data:application/octet-stream;base64,", "byteLength": 20592}], "meshes": [{"primitives": [{"mode": 4, "attributes": {"POSITION": 0}, "indices": 1}]}], "nodes": [{"mesh": 0}], "scenes": [{"nodes": [0]}], "scene": 0}