{"nodes": [{"mesh": 0}], "scene": 0, "accessors": [{"count": 4670, "componentType": 5126, "bufferView": 0, "min": [0.25, 0.25, 0.5], "byteOffset": 0, "type": "VEC3", "max": [6.0153, 6.0137, 2.5128]}, {"count": 27858, "componentType": 5125, "bufferView": 1, "min": [0.0], "byteOffset": 0, "type": "SCALAR", "max": [4669.0]}], "bufferViews": [{"buffer": 0, "byteOffset": 0, "target": 34962, "byteLength": 56040}, {"buffer": 1, "byteOffset": 0, "target": 34963, "byteLength": 111432}], "scenes": [{"nodes": [0]}], "meshes": [{"primitives": [{"attributes": {"POSITION": 0}, "mode": 4, "indices": 1}]}], "buffers": [{"byteLength": 56040, "uri": "data:application/octet-stream;base64,"}, {"byteLength": 111432, "uri": "data:application/octet-stream;base64,"}], "asset": {"version": "2.0", "generator": "CS460 Magic Fingers"}}