{"asset": {"version": "2.0", "generator": "CS460 Magic Fingers"}, "accessors": [{"bufferView": 0, "byteOffset": 0, "componentType": 5126, "count": 867.0, "type": "VEC3", "max": [0.05208, 0.0792, 0.05208], "min": [-0.05208, -0.0012, -0.05208]}, {"bufferView": 1, "byteOffset": 0, "componentType": 5123, "count": 5112, "type": "SCALAR", "max": [866], "min": [0]}], "bufferViews": [{"buffer": 0, "byteOffset": 0, "byteLength": 10404, "target": 34962}, {"buffer": 1, "byteOffset": 0, "byteLength": 10224, "target": 34963}], "buffers": [{"uri": "data:application/octet-stream;base64,", "byteLength": 10404}, {"uri": "data:application/octet-stream;base64,", "byteLength": 10224}], "meshes": [{"primitives": [{"mode": 4, "attributes": {"POSITION": 0}, "indices": 1}]}], "nodes": [{"mesh": 0}], "scenes": [{"nodes": [0]}], "scene": 0}
