{"asset":{"version":"2.0","generator":"CS460 Magic Fingers"},"accessors":[{"bufferView":0,"byteOffset":0,"componentType":5126,"count":1177,"type":"VEC3","max":[3.4296300411224365,2,3.1500000953674316],"min":[-3,-2,0]},{"bufferView":1,"byteOffset":0,"componentType":5123,"count":6768,"type":"SCALAR","max":[1176],"min":[0]}],"bufferViews":[{"buffer":0,"byteOffset":0,"byteLength":14124,"target":34962},{"buffer":1,"byteOffset":0,"byteLength":13536,"target":34963}],"buffers":[{"uri":"data:application/octet-stream;base64,","byteLength":14124},{"uri":"data:application/octet-stream;base64,","byteLength":13536}],"meshes":[{"primitives":[{"mode":4,"attributes":{"POSITION":0},"indices":1}]}],"nodes":[{"mesh":0}],"scenes":[{"nodes":[0]}],"scene":0}