{"asset":{"generator":"3D Builder","version":"2.0"},"scene":0,"scenes":[{"nodes":[0]}],"nodes":[{"mesh":0,"matrix":[0.99999958276748657,2.8988059057155624E-5,0.0008856217609718442,0,0.00088561343727633357,-9.3315711637842469E-6,-0.99999958276748657,0,-2.8961312636965886E-5,0.99999988079071045,-9.3541821115650237E-6,0,253.08985900878906,-58.555793762207031,-75.3892593383789,1]}],"meshes":[{"primitives":[{"attributes":{"POSITION":0},"mode":4,"indices":5,"material":0},{"attributes":{"POSITION":1,"COLOR_0":4},"mode":4,"indices":6},{"attributes":{"POSITION":2,"TEXCOORD_0":3},"mode":4,"indices":7,"material":1}]}],"materials":[{"pbrMetallicRoughness":{"baseColorFactor":[0.21951973438262939,0.21951973438262939,0.21951973438262939,1],"metallicFactor":0,"roughnessFactor":0},"alphaMode":"OPAQUE"},{"pbrMetallicRoughness":{"baseColorFactor":[1,1,1,1],"metallicFactor":0,"roughnessFactor":1,"baseColorTexture":{"index":0,"texCoord":0}},"alphaMode":"OPAQUE"}],"textures":[{"source":0,"sampler":0}],"images":[{"uri":"cow-texture.jpg"}],"samplers":[{"magFilter":9729,"wrapS":10497,"wrapT":10497}],"accessors":[{"bufferView":0,"byteOffset":0,"count":3,"componentType":5126,"type":"VEC3","min":[-291.99066162109375,77.67755126953125,33.838966369628906],"max":[-285.92654418945312,78.14874267578125,35.473239898681641]},{"bufferView":0,"byteOffset":36,"count":11,"componentType":5126,"type":"VEC3","min":[-346.218505859375,66.363037109375,40.406867980957031],"max":[-329.24285888671875,71.643508911132813,102.29908752441406]},{"bufferView":0,"byteOffset":168,"count":2903,"componentType":5126,"type":"VEC3","min":[-350.3468017578125,37.30926513671875,-3.1590461730957031E-6],"max":[-155.94976806640625,100.44108581542969,117.12500762939453]},{"bufferView":1,"byteOffset":0,"count":2903,"componentType":5126,"type":"VEC2"},{"bufferView":2,"byteOffset":0,"count":11,"componentType":5121,"type":"VEC4","normalized":true},{"bufferView":3,"byteOffset":0,"count":3,"componentType":5125,"type":"SCALAR"},{"bufferView":3,"byteOffset":12,"count":21,"componentType":5125,"type":"SCALAR"},{"bufferView":3,"byteOffset":96,"count":17388,"componentType":5125,"type":"SCALAR"}],"bufferViews":[{"buffer":0,"byteOffset":0,"byteLength":35004,"byteStride":12,"target":34962},{"buffer":0,"byteOffset":35004,"byteLength":23224,"byteStride":8,"target":34962},{"buffer":0,"byteOffset":58228,"byteLength":44,"byteStride":4,"target":34962},{"buffer":0,"byteOffset":58272,"byteLength":69648,"target":34963}],"buffers":[{"byteLength":127920,"uri":"cow_textured.bin"}]}