{"asset":{"generator":"3D Builder","version":"2.0"},"scene":0,"scenes":[{"nodes":[0]}],"nodes":[{"mesh":0,"matrix":[0.9999423623085022,-0.010453413240611553,0.0024163168855011463,0,0.0024164202623069286,-3.2499990538781276E-6,-0.999997079372406,0,0.010453371331095695,0.99994522333145142,2.1993588234181516E-5,0,-253.77586364746094,-0.70911490917205811,-68.817710876464844,1]}],"meshes":[{"primitives":[{"attributes":{"POSITION":0},"mode":4,"indices":3,"material":0},{"attributes":{"POSITION":1,"COLOR_0":2},"mode":4,"indices":4}]}],"materials":[{"pbrMetallicRoughness":{"baseColorFactor":[0.21951973438262939,0.21951973438262939,0.21951973438262939,1],"metallicFactor":0,"roughnessFactor":0},"alphaMode":"OPAQUE"}],"accessors":[{"bufferView":0,"byteOffset":0,"count":3,"componentType":5126,"type":"VEC3","min":[-38.612770080566406,8.7761383056640625,34.209903717041016],"max":[-32.532535552978516,9.2532072067260742,35.78070068359375]},{"bufferView":0,"byteOffset":36,"count":2903,"componentType":5126,"type":"VEC3","min":[-96.882560729980469,-31.565998077392578,1.52587890625E-5],"max":[96.882598876953125,31.566001892089844,118.67840576171875]},{"bufferView":1,"byteOffset":0,"count":2903,"componentType":5121,"type":"VEC4","normalized":true},{"bufferView":2,"byteOffset":0,"count":3,"componentType":5125,"type":"SCALAR"},{"bufferView":2,"byteOffset":12,"count":17409,"componentType":5125,"type":"SCALAR"}],"bufferViews":[{"buffer":0,"byteOffset":0,"byteLength":34872,"byteStride":12,"target":34962},{"buffer":0,"byteOffset":34872,"byteLength":11612,"byteStride":4,"target":34962},{"buffer":0,"byteOffset":46484,"byteLength":69648,"target":34963}],"buffers":[{"byteLength":116132,"uri":"cow_moved.bin"}]}