{
   "asset": {
      "version": "2.0",
      "generator": "CS460 Magic Fingers"
   },
   "accessors": [{
      "bufferView": 0,
      "byteOffset": 0,
      "componentType": 5126,
      "count": 3,
      "type": "VEC3",
      "max": [-0.043577998876571655, 5.482480049133301, 0.46698200702667236],
      "min": [-1.6961179971694946, 2.955246925354004, 0.3274019956588745]
   }],
   "bufferViews": [{
      "buffer": 0,
      "byteOffset": 0,
      "byteLength": 19020,
      "target": 34962
   }],
   "buffers": [{
      "uri": "data:application/octet-stream;base64,",
      "byteLength": 19020
   }],
   "meshes": [{
      "primitives": [{
         "mode": 4,
         "attributes": {
            "POSITION": 0
}
      }]
   }],
   "nodes": [{
      "mesh": 0
   }],
   "scenes": [{
      "nodes": [0]
   }],
   "scene": 0
}